G04 #@! TF.GenerationSoftware,KiCad,Pcbnew,5.0.2+dfsg1-1~bpo9+1*
G04 #@! TF.CreationDate,2019-09-16T10:21:19+01:00*
G04 #@! TF.ProjectId,usb_c_usb_a,7573625f-635f-4757-9362-5f612e6b6963,rev?*
G04 #@! TF.SameCoordinates,Original*
G04 #@! TF.FileFunction,Legend,Top*
G04 #@! TF.FilePolarity,Positive*
%FSLAX46Y46*%
G04 Gerber Fmt 4.6, Leading zero omitted, Abs format (unit mm)*
G04 Created by KiCad (PCBNEW 5.0.2+dfsg1-1~bpo9+1) date Mon 16 Sep 2019 10:21:19 BST*
%MOMM*%
%LPD*%
G01*
G04 APERTURE LIST*
%ADD10C,0.150000*%
%ADD11C,0.120000*%
G04 APERTURE END LIST*
D10*
G04 #@! TO.C,U1*
X175221900Y-56019700D02*
X175221900Y-66179700D01*
G04 #@! TO.C,J1*
X163963421Y-54298340D02*
X150379501Y-54298340D01*
X163963421Y-67506340D02*
X150379501Y-67506340D01*
X163963421Y-67506340D02*
X163963421Y-54298340D01*
X150379501Y-67506340D02*
X150379501Y-54298340D01*
D11*
G04 #@! TO.C,5.1k*
X167544336Y-52442700D02*
X168748464Y-52442700D01*
X167544336Y-54262700D02*
X168748464Y-54262700D01*
X167112536Y-69363000D02*
X168316664Y-69363000D01*
X167112536Y-67543000D02*
X168316664Y-67543000D01*
D10*
X171889847Y-52766980D02*
X171413657Y-52766980D01*
X171366038Y-53243171D01*
X171413657Y-53195552D01*
X171508895Y-53147933D01*
X171746990Y-53147933D01*
X171842228Y-53195552D01*
X171889847Y-53243171D01*
X171937466Y-53338409D01*
X171937466Y-53576504D01*
X171889847Y-53671742D01*
X171842228Y-53719361D01*
X171746990Y-53766980D01*
X171508895Y-53766980D01*
X171413657Y-53719361D01*
X171366038Y-53671742D01*
X172366038Y-53671742D02*
X172413657Y-53719361D01*
X172366038Y-53766980D01*
X172318419Y-53719361D01*
X172366038Y-53671742D01*
X172366038Y-53766980D01*
X173366038Y-53766980D02*
X172794609Y-53766980D01*
X173080323Y-53766980D02*
X173080323Y-52766980D01*
X172985085Y-52909838D01*
X172889847Y-53005076D01*
X172794609Y-53052695D01*
X173794609Y-53766980D02*
X173794609Y-52766980D01*
X173889847Y-53386028D02*
X174175561Y-53766980D01*
X174175561Y-53100314D02*
X173794609Y-53481266D01*
X171369147Y-68095880D02*
X170892957Y-68095880D01*
X170845338Y-68572071D01*
X170892957Y-68524452D01*
X170988195Y-68476833D01*
X171226290Y-68476833D01*
X171321528Y-68524452D01*
X171369147Y-68572071D01*
X171416766Y-68667309D01*
X171416766Y-68905404D01*
X171369147Y-69000642D01*
X171321528Y-69048261D01*
X171226290Y-69095880D01*
X170988195Y-69095880D01*
X170892957Y-69048261D01*
X170845338Y-69000642D01*
X171845338Y-69000642D02*
X171892957Y-69048261D01*
X171845338Y-69095880D01*
X171797719Y-69048261D01*
X171845338Y-69000642D01*
X171845338Y-69095880D01*
X172845338Y-69095880D02*
X172273909Y-69095880D01*
X172559623Y-69095880D02*
X172559623Y-68095880D01*
X172464385Y-68238738D01*
X172369147Y-68333976D01*
X172273909Y-68381595D01*
X173273909Y-69095880D02*
X173273909Y-68095880D01*
X173369147Y-68714928D02*
X173654861Y-69095880D01*
X173654861Y-68429214D02*
X173273909Y-68810166D01*
G04 #@! TD*
M02*
