G04 #@! TF.GenerationSoftware,KiCad,Pcbnew,5.0.2+dfsg1-1~bpo9+1*
G04 #@! TF.CreationDate,2019-09-16T10:21:19+01:00*
G04 #@! TF.ProjectId,usb_c_usb_a,7573625f-635f-4757-9362-5f612e6b6963,rev?*
G04 #@! TF.SameCoordinates,Original*
G04 #@! TF.FileFunction,Soldermask,Top*
G04 #@! TF.FilePolarity,Negative*
%FSLAX46Y46*%
G04 Gerber Fmt 4.6, Leading zero omitted, Abs format (unit mm)*
G04 Created by KiCad (PCBNEW 5.0.2+dfsg1-1~bpo9+1) date Mon 16 Sep 2019 10:21:19 BST*
%MOMM*%
%LPD*%
G01*
G04 APERTURE LIST*
%ADD10C,0.100000*%
G04 APERTURE END LIST*
D10*
G36*
X164080021Y-69634300D02*
X159478021Y-69634300D01*
X159478021Y-67532300D01*
X164080021Y-67532300D01*
X164080021Y-69634300D01*
X164080021Y-69634300D01*
G37*
G36*
X169815162Y-67531181D02*
X169850077Y-67541773D01*
X169882265Y-67558978D01*
X169910473Y-67582127D01*
X169933622Y-67610335D01*
X169950827Y-67642523D01*
X169961419Y-67677438D01*
X169965600Y-67719895D01*
X169965600Y-69186105D01*
X169961419Y-69228562D01*
X169950827Y-69263477D01*
X169933622Y-69295665D01*
X169910473Y-69323873D01*
X169882265Y-69347022D01*
X169850077Y-69364227D01*
X169815162Y-69374819D01*
X169772705Y-69379000D01*
X168631495Y-69379000D01*
X168589038Y-69374819D01*
X168554123Y-69364227D01*
X168521935Y-69347022D01*
X168493727Y-69323873D01*
X168470578Y-69295665D01*
X168453373Y-69263477D01*
X168442781Y-69228562D01*
X168438600Y-69186105D01*
X168438600Y-67719895D01*
X168442781Y-67677438D01*
X168453373Y-67642523D01*
X168470578Y-67610335D01*
X168493727Y-67582127D01*
X168521935Y-67558978D01*
X168554123Y-67541773D01*
X168589038Y-67531181D01*
X168631495Y-67527000D01*
X169772705Y-67527000D01*
X169815162Y-67531181D01*
X169815162Y-67531181D01*
G37*
G36*
X166840162Y-67531181D02*
X166875077Y-67541773D01*
X166907265Y-67558978D01*
X166935473Y-67582127D01*
X166958622Y-67610335D01*
X166975827Y-67642523D01*
X166986419Y-67677438D01*
X166990600Y-67719895D01*
X166990600Y-69186105D01*
X166986419Y-69228562D01*
X166975827Y-69263477D01*
X166958622Y-69295665D01*
X166935473Y-69323873D01*
X166907265Y-69347022D01*
X166875077Y-69364227D01*
X166840162Y-69374819D01*
X166797705Y-69379000D01*
X165656495Y-69379000D01*
X165614038Y-69374819D01*
X165579123Y-69364227D01*
X165546935Y-69347022D01*
X165518727Y-69323873D01*
X165495578Y-69295665D01*
X165478373Y-69263477D01*
X165467781Y-69228562D01*
X165463600Y-69186105D01*
X165463600Y-67719895D01*
X165467781Y-67677438D01*
X165478373Y-67642523D01*
X165495578Y-67610335D01*
X165518727Y-67582127D01*
X165546935Y-67558978D01*
X165579123Y-67541773D01*
X165614038Y-67531181D01*
X165656495Y-67527000D01*
X166797705Y-67527000D01*
X166840162Y-67531181D01*
X166840162Y-67531181D01*
G37*
G36*
X172852043Y-64647481D02*
X172997815Y-64707862D01*
X173129011Y-64795524D01*
X173240576Y-64907089D01*
X173328238Y-65038285D01*
X173388619Y-65184057D01*
X173419400Y-65338807D01*
X173419400Y-65496593D01*
X173388619Y-65651343D01*
X173328238Y-65797115D01*
X173240576Y-65928311D01*
X173129011Y-66039876D01*
X172997815Y-66127538D01*
X172852043Y-66187919D01*
X172697293Y-66218700D01*
X172539507Y-66218700D01*
X172384757Y-66187919D01*
X172238985Y-66127538D01*
X172107789Y-66039876D01*
X171996224Y-65928311D01*
X171908562Y-65797115D01*
X171848181Y-65651343D01*
X171817400Y-65496593D01*
X171817400Y-65338807D01*
X171848181Y-65184057D01*
X171908562Y-65038285D01*
X171996224Y-64907089D01*
X172107789Y-64795524D01*
X172238985Y-64707862D01*
X172384757Y-64647481D01*
X172539507Y-64616700D01*
X172697293Y-64616700D01*
X172852043Y-64647481D01*
X172852043Y-64647481D01*
G37*
G36*
X169054743Y-64647481D02*
X169200515Y-64707862D01*
X169331711Y-64795524D01*
X169443276Y-64907089D01*
X169530938Y-65038285D01*
X169591319Y-65184057D01*
X169622100Y-65338807D01*
X169622100Y-65496593D01*
X169591319Y-65651343D01*
X169530938Y-65797115D01*
X169443276Y-65928311D01*
X169331711Y-66039876D01*
X169200515Y-66127538D01*
X169054743Y-66187919D01*
X168899993Y-66218700D01*
X168742207Y-66218700D01*
X168587457Y-66187919D01*
X168441685Y-66127538D01*
X168310489Y-66039876D01*
X168198924Y-65928311D01*
X168111262Y-65797115D01*
X168050881Y-65651343D01*
X168020100Y-65496593D01*
X168020100Y-65338807D01*
X168050881Y-65184057D01*
X168111262Y-65038285D01*
X168198924Y-64907089D01*
X168310489Y-64795524D01*
X168441685Y-64707862D01*
X168587457Y-64647481D01*
X168742207Y-64616700D01*
X168899993Y-64616700D01*
X169054743Y-64647481D01*
X169054743Y-64647481D01*
G37*
G36*
X166091381Y-65039820D02*
X163989381Y-65039820D01*
X163989381Y-63937820D01*
X166091381Y-63937820D01*
X166091381Y-65039820D01*
X166091381Y-65039820D01*
G37*
G36*
X169372100Y-64206600D02*
X168270100Y-64206600D01*
X168270100Y-63504600D01*
X169372100Y-63504600D01*
X169372100Y-64206600D01*
X169372100Y-64206600D01*
G37*
G36*
X169372100Y-62934700D02*
X168270100Y-62934700D01*
X168270100Y-62312700D01*
X169372100Y-62312700D01*
X169372100Y-62934700D01*
X169372100Y-62934700D01*
G37*
G36*
X166091381Y-62570940D02*
X163989381Y-62570940D01*
X163989381Y-61468940D01*
X166091381Y-61468940D01*
X166091381Y-62570940D01*
X166091381Y-62570940D01*
G37*
G36*
X169372100Y-61918700D02*
X168270100Y-61918700D01*
X168270100Y-61296700D01*
X169372100Y-61296700D01*
X169372100Y-61918700D01*
X169372100Y-61918700D01*
G37*
G36*
X169372100Y-60902700D02*
X168270100Y-60902700D01*
X168270100Y-60280700D01*
X169372100Y-60280700D01*
X169372100Y-60902700D01*
X169372100Y-60902700D01*
G37*
G36*
X166091381Y-60335740D02*
X163989381Y-60335740D01*
X163989381Y-59233740D01*
X166091381Y-59233740D01*
X166091381Y-60335740D01*
X166091381Y-60335740D01*
G37*
G36*
X169372100Y-59886700D02*
X168270100Y-59886700D01*
X168270100Y-59264700D01*
X169372100Y-59264700D01*
X169372100Y-59886700D01*
X169372100Y-59886700D01*
G37*
G36*
X169372100Y-58694800D02*
X168270100Y-58694800D01*
X168270100Y-57992800D01*
X169372100Y-57992800D01*
X169372100Y-58694800D01*
X169372100Y-58694800D01*
G37*
G36*
X166091381Y-57871940D02*
X163989381Y-57871940D01*
X163989381Y-56769940D01*
X166091381Y-56769940D01*
X166091381Y-57871940D01*
X166091381Y-57871940D01*
G37*
G36*
X169054743Y-56011481D02*
X169200515Y-56071862D01*
X169331711Y-56159524D01*
X169443276Y-56271089D01*
X169530938Y-56402285D01*
X169591319Y-56548057D01*
X169622100Y-56702807D01*
X169622100Y-56860593D01*
X169591319Y-57015343D01*
X169530938Y-57161115D01*
X169443276Y-57292311D01*
X169331711Y-57403876D01*
X169200515Y-57491538D01*
X169054743Y-57551919D01*
X168899993Y-57582700D01*
X168742207Y-57582700D01*
X168587457Y-57551919D01*
X168441685Y-57491538D01*
X168310489Y-57403876D01*
X168198924Y-57292311D01*
X168111262Y-57161115D01*
X168050881Y-57015343D01*
X168020100Y-56860593D01*
X168020100Y-56702807D01*
X168050881Y-56548057D01*
X168111262Y-56402285D01*
X168198924Y-56271089D01*
X168310489Y-56159524D01*
X168441685Y-56071862D01*
X168587457Y-56011481D01*
X168742207Y-55980700D01*
X168899993Y-55980700D01*
X169054743Y-56011481D01*
X169054743Y-56011481D01*
G37*
G36*
X172852043Y-56011481D02*
X172997815Y-56071862D01*
X173129011Y-56159524D01*
X173240576Y-56271089D01*
X173328238Y-56402285D01*
X173388619Y-56548057D01*
X173419400Y-56702807D01*
X173419400Y-56860593D01*
X173388619Y-57015343D01*
X173328238Y-57161115D01*
X173240576Y-57292311D01*
X173129011Y-57403876D01*
X172997815Y-57491538D01*
X172852043Y-57551919D01*
X172697293Y-57582700D01*
X172539507Y-57582700D01*
X172384757Y-57551919D01*
X172238985Y-57491538D01*
X172107789Y-57403876D01*
X171996224Y-57292311D01*
X171908562Y-57161115D01*
X171848181Y-57015343D01*
X171817400Y-56860593D01*
X171817400Y-56702807D01*
X171848181Y-56548057D01*
X171908562Y-56402285D01*
X171996224Y-56271089D01*
X172107789Y-56159524D01*
X172238985Y-56071862D01*
X172384757Y-56011481D01*
X172539507Y-55980700D01*
X172697293Y-55980700D01*
X172852043Y-56011481D01*
X172852043Y-56011481D01*
G37*
G36*
X167271962Y-52430881D02*
X167306877Y-52441473D01*
X167339065Y-52458678D01*
X167367273Y-52481827D01*
X167390422Y-52510035D01*
X167407627Y-52542223D01*
X167418219Y-52577138D01*
X167422400Y-52619595D01*
X167422400Y-54085805D01*
X167418219Y-54128262D01*
X167407627Y-54163177D01*
X167390422Y-54195365D01*
X167367273Y-54223573D01*
X167339065Y-54246722D01*
X167306877Y-54263927D01*
X167271962Y-54274519D01*
X167229505Y-54278700D01*
X166088295Y-54278700D01*
X166045838Y-54274519D01*
X166010923Y-54263927D01*
X165978735Y-54246722D01*
X165950527Y-54223573D01*
X165927378Y-54195365D01*
X165910173Y-54163177D01*
X165899581Y-54128262D01*
X165895400Y-54085805D01*
X165895400Y-52619595D01*
X165899581Y-52577138D01*
X165910173Y-52542223D01*
X165927378Y-52510035D01*
X165950527Y-52481827D01*
X165978735Y-52458678D01*
X166010923Y-52441473D01*
X166045838Y-52430881D01*
X166088295Y-52426700D01*
X167229505Y-52426700D01*
X167271962Y-52430881D01*
X167271962Y-52430881D01*
G37*
G36*
X170246962Y-52430881D02*
X170281877Y-52441473D01*
X170314065Y-52458678D01*
X170342273Y-52481827D01*
X170365422Y-52510035D01*
X170382627Y-52542223D01*
X170393219Y-52577138D01*
X170397400Y-52619595D01*
X170397400Y-54085805D01*
X170393219Y-54128262D01*
X170382627Y-54163177D01*
X170365422Y-54195365D01*
X170342273Y-54223573D01*
X170314065Y-54246722D01*
X170281877Y-54263927D01*
X170246962Y-54274519D01*
X170204505Y-54278700D01*
X169063295Y-54278700D01*
X169020838Y-54274519D01*
X168985923Y-54263927D01*
X168953735Y-54246722D01*
X168925527Y-54223573D01*
X168902378Y-54195365D01*
X168885173Y-54163177D01*
X168874581Y-54128262D01*
X168870400Y-54085805D01*
X168870400Y-52619595D01*
X168874581Y-52577138D01*
X168885173Y-52542223D01*
X168902378Y-52510035D01*
X168925527Y-52481827D01*
X168953735Y-52458678D01*
X168985923Y-52441473D01*
X169020838Y-52430881D01*
X169063295Y-52426700D01*
X170204505Y-52426700D01*
X170246962Y-52430881D01*
X170246962Y-52430881D01*
G37*
G36*
X164074941Y-54277460D02*
X159472941Y-54277460D01*
X159472941Y-52175460D01*
X164074941Y-52175460D01*
X164074941Y-54277460D01*
X164074941Y-54277460D01*
G37*
M02*
