G04 #@! TF.GenerationSoftware,KiCad,Pcbnew,5.0.2+dfsg1-1~bpo9+1*
G04 #@! TF.CreationDate,2019-09-16T10:21:19+01:00*
G04 #@! TF.ProjectId,usb_c_usb_a,7573625f-635f-4757-9362-5f612e6b6963,rev?*
G04 #@! TF.SameCoordinates,Original*
G04 #@! TF.FileFunction,Soldermask,Bot*
G04 #@! TF.FilePolarity,Negative*
%FSLAX46Y46*%
G04 Gerber Fmt 4.6, Leading zero omitted, Abs format (unit mm)*
G04 Created by KiCad (PCBNEW 5.0.2+dfsg1-1~bpo9+1) date Mon 16 Sep 2019 10:21:19 BST*
%MOMM*%
%LPD*%
G01*
G04 APERTURE LIST*
%ADD10C,0.100000*%
G04 APERTURE END LIST*
D10*
G36*
X172852043Y-64647481D02*
X172997815Y-64707862D01*
X173129011Y-64795524D01*
X173240576Y-64907089D01*
X173328238Y-65038285D01*
X173388619Y-65184057D01*
X173419400Y-65338807D01*
X173419400Y-65496593D01*
X173388619Y-65651343D01*
X173328238Y-65797115D01*
X173240576Y-65928311D01*
X173129011Y-66039876D01*
X172997815Y-66127538D01*
X172852043Y-66187919D01*
X172697293Y-66218700D01*
X172539507Y-66218700D01*
X172384757Y-66187919D01*
X172238985Y-66127538D01*
X172107789Y-66039876D01*
X171996224Y-65928311D01*
X171908562Y-65797115D01*
X171848181Y-65651343D01*
X171817400Y-65496593D01*
X171817400Y-65338807D01*
X171848181Y-65184057D01*
X171908562Y-65038285D01*
X171996224Y-64907089D01*
X172107789Y-64795524D01*
X172238985Y-64707862D01*
X172384757Y-64647481D01*
X172539507Y-64616700D01*
X172697293Y-64616700D01*
X172852043Y-64647481D01*
X172852043Y-64647481D01*
G37*
G36*
X169054743Y-64647481D02*
X169200515Y-64707862D01*
X169331711Y-64795524D01*
X169443276Y-64907089D01*
X169530938Y-65038285D01*
X169591319Y-65184057D01*
X169622100Y-65338807D01*
X169622100Y-65496593D01*
X169591319Y-65651343D01*
X169530938Y-65797115D01*
X169443276Y-65928311D01*
X169331711Y-66039876D01*
X169200515Y-66127538D01*
X169054743Y-66187919D01*
X168899993Y-66218700D01*
X168742207Y-66218700D01*
X168587457Y-66187919D01*
X168441685Y-66127538D01*
X168310489Y-66039876D01*
X168198924Y-65928311D01*
X168111262Y-65797115D01*
X168050881Y-65651343D01*
X168020100Y-65496593D01*
X168020100Y-65338807D01*
X168050881Y-65184057D01*
X168111262Y-65038285D01*
X168198924Y-64907089D01*
X168310489Y-64795524D01*
X168441685Y-64707862D01*
X168587457Y-64647481D01*
X168742207Y-64616700D01*
X168899993Y-64616700D01*
X169054743Y-64647481D01*
X169054743Y-64647481D01*
G37*
G36*
X172852043Y-56011481D02*
X172997815Y-56071862D01*
X173129011Y-56159524D01*
X173240576Y-56271089D01*
X173328238Y-56402285D01*
X173388619Y-56548057D01*
X173419400Y-56702807D01*
X173419400Y-56860593D01*
X173388619Y-57015343D01*
X173328238Y-57161115D01*
X173240576Y-57292311D01*
X173129011Y-57403876D01*
X172997815Y-57491538D01*
X172852043Y-57551919D01*
X172697293Y-57582700D01*
X172539507Y-57582700D01*
X172384757Y-57551919D01*
X172238985Y-57491538D01*
X172107789Y-57403876D01*
X171996224Y-57292311D01*
X171908562Y-57161115D01*
X171848181Y-57015343D01*
X171817400Y-56860593D01*
X171817400Y-56702807D01*
X171848181Y-56548057D01*
X171908562Y-56402285D01*
X171996224Y-56271089D01*
X172107789Y-56159524D01*
X172238985Y-56071862D01*
X172384757Y-56011481D01*
X172539507Y-55980700D01*
X172697293Y-55980700D01*
X172852043Y-56011481D01*
X172852043Y-56011481D01*
G37*
G36*
X169054743Y-56011481D02*
X169200515Y-56071862D01*
X169331711Y-56159524D01*
X169443276Y-56271089D01*
X169530938Y-56402285D01*
X169591319Y-56548057D01*
X169622100Y-56702807D01*
X169622100Y-56860593D01*
X169591319Y-57015343D01*
X169530938Y-57161115D01*
X169443276Y-57292311D01*
X169331711Y-57403876D01*
X169200515Y-57491538D01*
X169054743Y-57551919D01*
X168899993Y-57582700D01*
X168742207Y-57582700D01*
X168587457Y-57551919D01*
X168441685Y-57491538D01*
X168310489Y-57403876D01*
X168198924Y-57292311D01*
X168111262Y-57161115D01*
X168050881Y-57015343D01*
X168020100Y-56860593D01*
X168020100Y-56702807D01*
X168050881Y-56548057D01*
X168111262Y-56402285D01*
X168198924Y-56271089D01*
X168310489Y-56159524D01*
X168441685Y-56071862D01*
X168587457Y-56011481D01*
X168742207Y-55980700D01*
X168899993Y-55980700D01*
X169054743Y-56011481D01*
X169054743Y-56011481D01*
G37*
M02*
